# xmcd CD database file generated by Grip 3.2.0
# 
# Track frame offsets:
#       150
#       11553
#       22830
#       30932
#       39439
#       50204
#       59923
#       71492
#       81286
#       90994
#       102491
#       112423
#       122927
#       133683
#       146203
#       157145
#       169454
#       180581
#       189489
#       200256
# 
# Disc length: 2837 seconds
# 
# Revision: 1
# Processed by: cddbd v1.5.1PL2 Copyright (c) Steve Scherf et al.
# Submitted via: Grip 3.2.0
# 
DISCID=270b1314
DTITLE=Various Artist - Rhythm and Blues Goes Rock 'n' Roll - Vol 2 - Disc 8
DYEAR=2002
DGENRE=Other
TTITLE0=Bobo Jenkins - Tell Me Who
TTITLE1=Phil Flowers - The Dances
TTITLE2=Aggie Dukes - John John
TTITLE3=Silhouettes - Miss Thing
TTITLE4=Johnny Chef - Can't Stop Movin'
TTITLE5=Millionaires - Arkansas Jane
TTITLE6=John Lee - Rhythm Rockin' Boogie
TTITLE7=Wynona Carr - Touch And Go
TTITLE8=George Smith - Yes Baby
TTITLE9=Otis Rush - My Baby Is A Good One
TTITLE10=Eddie Clearwater - A Real Good Time
TTITLE11=Jay Nelson - Raise Some Sand
TTITLE12=Ricky Charles - Hi Yo Silver
TTITLE13=Big Daddy - Bacon Fat
TTITLE14=Juke Boy Bonner - Running Shoes
TTITLE15=Larry Darnell - Rambling Man
TTITLE16=King Coleman - Let's Shimmy
TTITLE17=Thunderbirds - Let's Play House Baby
TTITLE18=Tiny Lewis - I Get Weak
TTITLE19=Big Bill Broonzy - Little City Woman
EXTD=YEAR: 2002
EXTT0=
EXTT1=
EXTT2=
EXTT3=
EXTT4=
EXTT5=
EXTT6=
EXTT7=
EXTT8=
EXTT9=
EXTT10=
EXTT11=
EXTT12=
EXTT13=
EXTT14=
EXTT15=
EXTT16=
EXTT17=
EXTT18=
EXTT19=
PLAYORDER=
